<?xml version="1.0" encoding="UTF-8"?>
<svg xmlns="http://www.w3.org/2000/svg" xmlns:xlink="http://www.w3.org/1999/xlink" version="1.1" viewBox="0 0 40 40">
  <defs>
    <style>
      .cls-1 {
      fill: #98a3b3;
      }
    </style>
  </defs>
  <!-- Generator: Adobe Illustrator 28.6.0, SVG Export Plug-In . SVG Version: 1.2.0 Build 709)  -->
  <g>
    <g id="Layer_1">
      <g id="dots">
        <circle class="cls-1" cx="21" cy="19" r="2"/>
        <circle class="cls-1" cx="15" cy="11" r="1"/>
        <circle class="cls-1" cx="10" cy="20" r="2"/>
        <circle class="cls-1" cx="20" cy="30" r="2"/>
        <circle class="cls-1" cx="12" cy="28" r="1"/>
        <circle class="cls-1" cx="29" cy="25" r="1"/>
      </g>
      <path class="cls-1" d="M19.1,4c0,.3,0,.6,0,1,0,2.2,1.2,4.1,3,5.2.1,4.3,3.5,7.7,7.8,7.8,1,1.8,3,3,5.2,3s.7,0,1,0c-.5,8.4-7.5,15.1-16,15.1S4,28.8,4,20s6.7-15.5,15.1-16M20,2C10.1,2,2,10.1,2,20s8.1,18,18,18,18-8.1,18-18,0-1.5-.1-2.2c-.7.7-1.7,1.2-2.9,1.2-1.9,0-3.5-1.3-3.9-3.1-.4,0-.7.1-1.1.1-3.3,0-6-2.7-6-6s0-.8.1-1.1c-1.8-.4-3.1-2-3.1-3.9s.5-2.1,1.2-2.9c-.7,0-1.5-.1-2.2-.1h0Z"/>
    </g>
  </g>
</svg>