<?xml version="1.0" encoding="utf-8"?>
<!-- Generator: Adobe Illustrator 27.0.1, SVG Export Plug-In . SVG Version: 6.00 Build 0)  -->
<svg version="1.1" xmlns="http://www.w3.org/2000/svg" xmlns:xlink="http://www.w3.org/1999/xlink" x="0px" y="0px"
	 viewBox="0 0 128 128" style="enable-background:new 0 0 128 128;" xml:space="preserve">
<style type="text/css">
	.st0{fill:#0B4095;}
	.st1{fill:#FFFFFF;}
	.st2{display:none;}
	.st3{display:inline;fill:#FFFFFF;}
</style>
<g id="Layer_3">
	<path class="st0" d="M120,128H8c-4.4,0-8-3.6-8-8V8c0-4.4,3.6-8,8-8h112c4.4,0,8,3.6,8,8v112C128,124.4,124.4,128,120,128z"/>
</g>
<g id="v5">
	<rect x="32" y="112" class="st1" width="64" height="4"/>
	<rect x="16" y="100" class="st1" width="96" height="4"/>
	<g>
		<path class="st1" d="M57.6,12.6c2.3,5.9,6.8,10.7,12.5,13.3c3.1,7,9.3,12,16.8,13.6c2.8,5.2,7.5,9.2,13,11.1
			C98.6,69.2,83,84,64,84c-19.9,0-36-16.1-36-36c0-9.1,3.4-17.7,9.5-24.4C42.9,17.8,49.9,14,57.6,12.6 M60.4,8.2
			C40,10,24,27.1,24,48c0,22.1,17.9,40,40,40s40-17.9,40-40v-0.4c-6.5-1.3-11.9-5.8-14.4-11.7c-7.6-0.9-13.9-6.1-16.4-13
			C66.8,20.5,61.9,15,60.4,8.2L60.4,8.2z"/>
	</g>
	<g class="st2">
		<path class="st3" d="M80-12c6.7,0,12.8,4.2,15,10.6l0.6,1.8L97.4,1c4.2,1.5,7.5,4.7,9.3,8.8l0.9,2.1l2.3,0.3
			c8,1,14.1,7.8,14.1,15.9c0,8.8-7.2,16-16,16c-1.1,0-2.1-0.1-3.2-0.3c-5.1-1-9.4-4.5-11.5-9.4l-0.9-2.1l-2.3-0.3
			C84.1,31.2,79,27.1,77,21.4l-0.6-1.8L74.6,19c-5.2-1.9-9.1-6.4-10.2-11.7C64.1,6.2,64,5.1,64,4C64-4.8,71.2-12,80-12 M80-16
			C69-16,60-7,60,4c0,1.4,0.2,2.8,0.4,4.2c1.4,6.8,6.3,12.3,12.8,14.7c2.5,7,8.8,12.1,16.4,13c2.5,6,7.9,10.4,14.4,11.7
			c1.3,0.3,2.6,0.4,4,0.4c11,0,20-9,20-20c0-10.2-7.7-18.7-17.6-19.9c-2.2-5.1-6.4-9.1-11.6-11C96-10.5,88.7-16,80-16L80-16z"/>
	</g>
	<g id="internal_points_00000115506421232877004200000010047135015242491044_">
		<g>
			<circle class="st1" cx="64" cy="72" r="4"/>
		</g>
		<g>
			<circle class="st1" cx="40" cy="48" r="4"/>
		</g>
		<g>
			<circle class="st1" cx="68" cy="44" r="4"/>
		</g>
		<g>
			<path class="st1" d="M50,28c-1.1,0-2,0.9-2,2s0.9,2,2,2s2-0.9,2-2S51.1,28,50,28L50,28z"/>
		</g>
		<g>
			<path class="st1" d="M46,64c-1.1,0-2,0.9-2,2s0.9,2,2,2s2-0.9,2-2S47.1,64,46,64L46,64z"/>
		</g>
		<g>
			<path class="st1" d="M82,60c-1.1,0-2,0.9-2,2s0.9,2,2,2s2-0.9,2-2S83.1,60,82,60L82,60z"/>
		</g>
	</g>
</g>
</svg>
